# xmcd
# 
# Track frame offsets:
#     150
#     13940
#     24132
#     41967
#     51342
#     66005
#     78527
#     90742
#     105295
#     125102
#     137870
#     154392
# 
# Disc length: 2289
# 
# Revision: 7
# Processed by: cddbd v1.5.2PL0 Copyright (c) Steve Scherf et al.
# Submitted via: BonkEnc v1.0.8
# 
DISCID=a308ef0c
DTITLE=Bob Dylan - The Basement Tapes
DYEAR=1967
DGENRE=Rock
TTITLE0=Too Much Of Nothing
TTITLE1=Yea! Heavy And A Bottle Of Bread
TTITLE2=Ain't No More Cane
TTITLE3=Crash On The Levee (Down In The Flood)
TTITLE4=Ruben Remus
TTITLE5=Tiny Montgomery
TTITLE6=You Ain't Goin' Nowhere
TTITLE7=Don't Ya Tell Henry
TTITLE8=Nothing Was Delivered
TTITLE9=Open The Door, Homer
TTITLE10=Long Distance Operator
TTITLE11=This Wheel's On Fire
EXTD=
EXTT0=Dylan
EXTT1=Dylan
EXTT2=Trad. arr. The Band
EXTT3=Dylan
EXTT4=Robertson/Manuel
EXTT5=Dylan
EXTT6=Dylan
EXTT7=Dylan
EXTT8=Dylan
EXTT9=Dylan
EXTT10=Dylan
EXTT11=Dylan/Danko
PLAYORDER=
